<svg width="29" height="30" fill="none" xmlns="http://www.w3.org/2000/svg"><path d="M14.496 2.785c3.87 0 4.33.015 5.858.085 1.413.065 2.182.3 2.692.499a4.802 4.802 0 012.75 2.75c.195.512.437 1.28.5 2.693.071 1.53.085 1.987.085 5.859s-.014 4.33-.084 5.857c-.064 1.414-.302 2.183-.5 2.693a4.802 4.802 0 01-2.751 2.75c-.51.195-1.279.436-2.692.5-1.528.07-1.988.084-5.858.084-3.87 0-4.329-.014-5.859-.084-1.413-.064-2.18-.301-2.692-.5a4.803 4.803 0 01-2.75-2.75c-.195-.51-.435-1.28-.499-2.693-.07-1.528-.086-1.987-.086-5.857s.016-4.33.086-5.86c.064-1.413.3-2.18.498-2.692a4.802 4.802 0 012.75-2.75c.513-.195 1.28-.434 2.693-.499 1.53-.07 1.988-.085 5.86-.085zm0-2.613c-3.938 0-4.43.018-5.978.088a10.64 10.64 0 00-3.52.673A7.415 7.415 0 00.76 5.173a10.64 10.64 0 00-.673 3.52C.016 10.238 0 10.737 0 14.67c0 3.934.017 4.43.087 5.976a10.64 10.64 0 00.672 3.522A7.415 7.415 0 005 28.409c1.126.421 2.317.649 3.52.673 1.547.072 2.04.087 5.977.087 3.938 0 4.431-.015 5.977-.087a10.641 10.641 0 003.52-.674 7.415 7.415 0 004.233-4.24c.422-1.126.65-2.316.674-3.519.072-1.546.087-2.04.087-5.976s-.015-4.433-.087-5.978a10.642 10.642 0 00-.674-3.522 7.414 7.414 0 00-4.24-4.24 10.64 10.64 0 00-3.52-.673c-1.545-.07-2.04-.088-5.975-.088h.005z" fill="#242321"/><path d="M14.496 7.233a7.446 7.446 0 10-.003 14.893 7.446 7.446 0 00.003-14.893zm0 12.278a4.833 4.833 0 114.832-4.832 4.833 4.833 0 01-4.832 4.818v.014zm7.738-10.84a1.74 1.74 0 100-3.48 1.74 1.74 0 000 3.48z" fill="#242321"/></svg>