<svg width="32" height="31" fill="none" xmlns="http://www.w3.org/2000/svg"><path d="M21.112 15.078c-.175-3.426-2.725-5.49-5.8-5.49h-.117c-3.543 0-5.529 2.785-5.529 5.958 0 3.542 2.375 5.8 5.51 5.8 3.484 0 5.78-2.55 5.936-5.567v-.7zm-5.898-8.565c2.375 0 4.614 1.051 6.249 2.686 0-.778.525-1.382 1.265-1.382h.195c1.148 0 1.382 1.09 1.382 1.44v12.265c-.078.798.837 1.226 1.323.7 1.967-2.024 4.322-10.395-1.226-15.261-5.178-4.516-12.108-3.777-15.787-1.246-3.913 2.706-6.424 8.682-3.99 14.308 2.666 6.132 10.258 7.962 14.774 6.132 2.297-.915 3.348 2.16.974 3.173-3.582 1.538-13.588 1.382-18.26-6.716-3.153-5.47-2.978-15.067 5.373-20.05 6.404-3.816 14.833-2.765 19.933 2.55 5.315 5.547 5.003 15.962-.175 20.01-2.355 1.83-5.84.06-5.82-2.627l-.02-.876c-1.635 1.616-3.815 2.57-6.19 2.57-4.691 0-8.818-4.127-8.818-8.819 0-4.691 4.127-8.857 8.818-8.857z" fill="#242321"/></svg>