<svg width="27" height="26" fill="none" xmlns="http://www.w3.org/2000/svg"><path d="M18.476 12.42c-.147-2.876-2.287-4.608-4.868-4.608h-.098c-2.974 0-4.64 2.337-4.64 5 0 2.973 1.993 4.868 4.623 4.868 2.925 0 4.853-2.14 4.983-4.672v-.589zm-4.95-7.189c1.993 0 3.872.882 5.244 2.255 0-.654.442-1.16 1.062-1.16h.164c.964 0 1.16.914 1.16 1.209v10.292c-.066.67.702 1.03 1.11.588 1.65-1.699 3.627-8.724-1.029-12.808-4.345-3.79-10.161-3.17-13.25-1.046-3.283 2.271-5.39 7.287-3.348 12.008 2.238 5.146 8.61 6.682 12.4 5.146 1.927-.767 2.81 1.814.816 2.663-3.006 1.29-11.403 1.16-15.324-5.636-2.647-4.59-2.5-12.645 4.51-16.827 5.374-3.203 12.448-2.32 16.729 2.14 4.46 4.656 4.198 13.396-.148 16.794-1.976 1.536-4.9.05-4.884-2.205l-.017-.735c-1.372 1.356-3.202 2.156-5.195 2.156-3.937 0-7.4-3.463-7.4-7.4 0-3.938 3.463-7.434 7.4-7.434z" fill="#FBBE04"/></svg>