<svg width="23" height="22" fill="none" xmlns="http://www.w3.org/2000/svg"><path d="M17.31 13.652c.49.201 3.167 1.641 3.714 1.929.518.288.892.432 1.037.691.115.23.086 1.353-.432 2.62-.519 1.296-2.822 2.448-3.83 2.505-1.008.058-1.036.778-6.593-1.641-5.558-2.448-8.898-8.35-9.157-8.724C1.79 10.657-.11 7.95.005 5.215.091 2.48 1.589 1.213 2.107.666A2.124 2.124 0 013.604.033c.374.029.749.086 1.066.086.316.029.777-.144 1.209.98.432 1.122 1.44 3.886 1.555 4.174.115.288.201.605 0 .979-.173.346-.288.576-.576.893-.288.316-.605.72-.864.95-.288.259-.605.547-.288 1.123s1.353 2.418 2.937 3.944c2.044 1.958 3.8 2.62 4.348 2.908.547.317.864.26 1.209-.086.346-.345 1.44-1.555 1.843-2.102.403-.547.777-.432 1.267-.23z" fill="#FBBE04"/></svg>