<svg width="15" height="15" fill="none" xmlns="http://www.w3.org/2000/svg"><path d="M11.248 9.66c.318.13 2.057 1.066 2.413 1.253.336.187.58.28.673.448.075.15.056.88-.28 1.702-.337.842-1.833 1.59-2.488 1.627-.654.037-.673.505-4.282-1.066-3.61-1.59-5.779-5.423-5.947-5.666-.168-.243-1.402-2-1.328-3.777.056-1.777 1.029-2.6 1.365-2.955a1.38 1.38 0 01.973-.412c.243.02.486.057.692.057.206.018.505-.094.785.635.28.73.935 2.525 1.01 2.712.075.187.13.393 0 .636-.112.224-.187.374-.374.58-.187.205-.393.467-.561.617-.187.168-.393.355-.187.729.206.374.879 1.57 1.907 2.562 1.328 1.271 2.469 1.701 2.824 1.888.355.206.561.169.786-.056.224-.224.935-1.01 1.196-1.365.262-.355.505-.28.823-.15z" fill="#FBBE04"/></svg>