<svg width="23" height="24" fill="none" xmlns="http://www.w3.org/2000/svg"><path fill-rule="evenodd" clip-rule="evenodd" d="M11.71.543C5.655.543.75 5.448.75 11.503c0 2.066.568 4.002 1.573 5.66l-1.98 5.88 6.07-1.95a10.869 10.869 0 005.297 1.369c6.054 0 10.959-4.905 10.959-10.96C22.684 5.448 17.764.543 11.709.543zm0 20.085a9.03 9.03 0 01-5.021-1.514l-3.508 1.12 1.135-3.39a9.057 9.057 0 01-1.731-5.356c0-5.036 4.09-9.126 9.125-9.126 5.036 0 9.125 4.09 9.125 9.126 0 5.05-4.09 9.14-9.125 9.14zm5.152-6.622c-.276-.146-1.63-.874-1.877-.976-.248-.101-.437-.16-.64.117-.205.277-.758.888-.932 1.062-.175.175-.335.204-.612.044-.276-.146-1.164-.48-2.197-1.47-.8-.771-1.325-1.703-1.485-1.994-.16-.29 0-.436.146-.567.13-.117.29-.32.436-.48.146-.16.204-.277.292-.452.101-.189.058-.35 0-.495-.059-.145-.568-1.542-.786-2.11-.219-.568-.452-.48-.612-.495-.16 0-.349-.029-.538-.043-.19 0-.495.058-.757.32-.262.276-1.019.917-1.062 2.3-.059 1.382.902 2.75 1.033 2.94.13.188 1.82 3.172 4.628 4.409 2.809 1.223 2.824.859 3.333.83.51-.03 1.674-.612 1.936-1.267.262-.64.276-1.208.218-1.324-.073-.131-.262-.204-.524-.35z" fill="#FBBE04"/></svg>