<svg width="34" height="33" fill="none" xmlns="http://www.w3.org/2000/svg"><path fill-rule="evenodd" clip-rule="evenodd" d="M17.418 0C8.655 0 1.558 7.1 1.558 15.86c0 2.991.821 5.793 2.274 8.194L.968 32.563l8.783-2.822a15.73 15.73 0 007.667 1.98c8.762 0 15.86-7.099 15.86-15.86C33.298 7.098 26.18 0 17.418 0zm0 29.067c-2.675 0-5.182-.8-7.267-2.19l-5.076 1.621 1.643-4.908a13.106 13.106 0 01-2.507-7.75c0-7.288 5.919-13.207 13.207-13.207 7.287 0 13.206 5.919 13.206 13.206 0 7.31-5.919 13.228-13.206 13.228zm7.456-9.584c-.4-.21-2.36-1.264-2.717-1.41-.358-.148-.632-.233-.927.168-.295.4-1.095 1.284-1.348 1.537-.253.253-.485.295-.885.063-.4-.21-1.685-.695-3.18-2.127-1.159-1.116-1.917-2.464-2.149-2.886-.231-.42 0-.631.211-.821.19-.168.421-.463.632-.695.21-.232.295-.4.421-.653.148-.274.084-.506 0-.716-.084-.21-.821-2.233-1.137-3.054-.316-.822-.653-.695-.885-.716-.232 0-.505-.042-.78-.063-.273 0-.715.084-1.094.463-.38.4-1.475 1.327-1.538 3.328-.084 2 1.306 3.98 1.495 4.254.19.274 2.633 4.592 6.698 6.382 4.065 1.77 4.087 1.243 4.824 1.2.737-.041 2.422-.884 2.8-1.832.38-.926.401-1.748.317-1.916-.105-.19-.38-.295-.758-.506z" fill="#242321"/></svg>